# xmcd CD database file
#
# Track frame offsets:
#	150
#	17185
#	38003
#	61695
#	82432
#	104575
#	123805
#	142679
#	163362
#	184539
#	202142
#	224538
#	245743
#	272400
#	291366
#	310926
#
# Disc length: 4408 seconds
#
# Revision: 0
# Processed by: cddbd v1.4PL0 Copyright (c) Steve Scherf et al.
# Submitted via: CDex 1.40Beta9
#
DISCID=f2113610
DTITLE=Maná - Greatest Hits
DYEAR=1999
DGENRE=Native American
TTITLE0=Se me olvido otravez
TTITLE1=Corazón espinado
TTITLE2=Clavado en un Bar
TTITLE3=Oye mi amor
TTITLE4=Vivir sin Aire
TTITLE5=Rayando el Sol
TTITLE6=Buscandola
TTITLE7=Como te deseo
TTITLE8=Tu tienes lo que quiero
TTITLE9=Como diablos
TTITLE10=Hechicera
TTITLE11=De pies a al cabeza
TTITLE12=En el Muelle de San Blas
TTITLE13=La chula
TTITLE14=Dejame entrar
TTITLE15=Como un perro enloquecido
EXTD=YEAR: 1999 ID3G: 64
EXTT0=
EXTT1=
EXTT2=
EXTT3=
EXTT4=
EXTT5=
EXTT6=
EXTT7=
EXTT8=
EXTT9=
EXTT10=
EXTT11=
EXTT12=
EXTT13=
EXTT14=
EXTT15=
PLAYORDER=
